<?xml version="1.0" standalone="no"?>
<!DOCTYPE svg PUBLIC "-//W3C//DTD SVG 20010904//EN"
 "http://www.w3.org/TR/2001/REC-SVG-20010904/DTD/svg10.dtd">
<svg version="1.0" xmlns="http://www.w3.org/2000/svg"
 width="600.000000pt" height="600.000000pt" viewBox="0 0 600.000000 600.000000"
 preserveAspectRatio="xMidYMid meet">
<metadata>
Created by potrace 1.11, written by Peter Selinger 2001-2013
</metadata>
<g transform="translate(0.000000,600.000000) scale(0.100000,-0.100000)"
fill="#000000" stroke="none">
<path d="M3055 5673 c-122 -18 -245 -93 -321 -195 -44 -60 -48 -63 -112 -78
-235 -56 -372 -221 -372 -448 0 -120 42 -224 126 -312 59 -62 128 -104 213
-131 l56 -17 5 -165 5 -165 60 35 c143 85 287 129 463 142 219 17 428 -31 602
-138 28 -17 52 -31 55 -31 2 0 6 73 7 161 l3 161 73 19 c94 24 158 59 235 130
156 143 225 357 183 570 -71 363 -427 538 -816 400 l-77 -27 -49 27 c-27 16
-74 35 -105 42 -62 17 -188 27 -234 20z"/>
<path d="M5047 5058 c-14 -13 -158 -243 -320 -513 -162 -269 -326 -543 -366
-608 -39 -65 -71 -127 -71 -138 0 -63 63 -82 101 -30 l21 29 82 -39 c114 -54
192 -72 311 -72 l99 1 -29 -25 c-17 -14 -76 -70 -133 -125 -56 -54 -115 -103
-130 -109 -19 -8 -98 -7 -267 2 -134 6 -353 9 -495 7 l-255 -5 -68 -32 c-37
-17 -107 -41 -155 -52 -147 -36 -270 -19 -468 62 -28 11 -42 10 -110 -10 -212
-62 -482 -185 -674 -308 -58 -36 -122 -75 -143 -86 l-38 -20 -62 23 c-34 12
-114 40 -177 62 -101 36 -118 45 -141 78 -15 21 -48 48 -75 61 -48 23 -57 24
-325 27 -312 4 -303 6 -314 -72 -9 -60 1 -101 37 -142 35 -39 99 -62 265 -94
102 -19 110 -22 138 -57 268 -330 462 -488 660 -538 92 -23 147 -19 278 24
l117 39 0 -549 c0 -536 0 -549 20 -569 18 -18 33 -20 149 -20 125 0 129 -1
134 -22 18 -72 108 -561 104 -564 -2 -3 -28 1 -57 7 -102 22 -225 -10 -300
-78 -55 -49 -99 -138 -107 -217 -9 -91 -35 -86 443 -86 401 0 415 1 434 20 19
19 20 33 20 480 l0 460 60 0 60 0 0 -460 c0 -447 1 -461 20 -480 19 -19 33
-20 434 -20 475 0 453 -4 443 82 -10 79 -53 163 -113 218 -79 72 -195 102
-309 81 -32 -6 -60 -9 -62 -8 -2 3 88 422 122 565 5 21 9 22 135 22 117 0 132
2 150 20 20 20 20 33 20 690 l0 670 23 5 c213 48 524 132 566 153 118 59 265
229 374 432 47 88 140 304 152 353 5 20 33 45 104 94 102 71 185 144 203 177
36 68 25 160 -24 201 -16 14 -40 25 -53 25 -53 0 -54 5 -29 87 34 105 41 227
20 333 -34 175 -151 352 -288 439 -50 32 -53 36 -50 68 5 38 -19 73 -49 73
-10 0 -29 -10 -42 -22z m-1752 -2083 c52 -51 20 -135 -51 -135 -49 0 -84 33
-84 80 0 72 84 106 135 55z m-24 -365 c23 0 49 -42 49 -79 0 -71 -77 -105
-134 -60 -26 21 -35 65 -20 104 8 20 63 46 82 40 8 -3 18 -5 23 -5z m23 -401
c28 -22 36 -73 16 -109 -14 -27 -64 -41 -100 -28 -36 12 -50 35 -50 82 0 41
37 76 80 76 15 0 39 -9 54 -21z"/>
<path d="M3130 4229 c-139 -18 -298 -81 -417 -166 -58 -40 -63 -47 -63 -81 0
-53 24 -136 61 -212 45 -91 170 -214 263 -259 232 -111 503 -63 686 120 98 98
170 250 170 361 0 33 -5 42 -42 69 -115 84 -295 151 -451 168 -106 12 -114 12
-207 0z"/>
<path d="M1111 3759 c-120 -23 -238 -111 -301 -223 l-32 -56 -159 0 c-146 0
-161 -2 -179 -20 -25 -25 -25 -55 0 -80 20 -20 33 -20 760 -20 727 0 740 0
760 20 11 11 20 29 20 40 0 11 -9 29 -20 40 -18 18 -33 20 -179 20 l-159 0
-32 56 c-96 171 -289 261 -479 223z"/>
</g>
</svg>
